HIERARCHY
ROOT Pelvis
{
	OFFSET -0.001795 -0.223333 0.028219
	CHANNELS 6 Xposition Yposition Zposition Zrotation Yrotation Xrotation 
	JOINT Left_hip
	{
		OFFSET 0.069520 -0.091406 -0.006815
		CHANNELS 3 Zrotation Yrotation Xrotation
		JOINT Left_knee
		{
			OFFSET 0.034277 -0.375199 -0.004496
			CHANNELS 3 Zrotation Yrotation Xrotation
			JOINT Left_ankle
			{
				OFFSET -0.013596 -0.397960 -0.043693
				CHANNELS 3 Zrotation Yrotation Xrotation
				JOINT Left_foot
				{
					OFFSET 0.026358 -0.055791 0.119288
					CHANNELS 3 Zrotation Yrotation Xrotation
					End Site
					{
						OFFSET 0.000000 0.000000 0.000000
					}
				}
			}
		}
	}
	JOINT Right_hip
	{
		OFFSET -0.067670 -0.090522 -0.004320
		CHANNELS 3 Zrotation Yrotation Xrotation
		JOINT Right_knee
		{
			OFFSET -0.038290 -0.382569 -0.008850
			CHANNELS 3 Zrotation Yrotation Xrotation
			JOINT Right_ankle
			{
				OFFSET 0.015774 -0.398415 -0.042312
				CHANNELS 3 Zrotation Yrotation Xrotation
				JOINT Right_foot
				{
					OFFSET -0.025372 -0.048144 0.123348
					CHANNELS 3 Zrotation Yrotation Xrotation
					End Site
					{
						OFFSET 0.000000 0.000000 0.000000
					}
				}
			}
		}
	}
	JOINT Spine1
	{
		OFFSET -0.002533 0.108963 -0.026696
		CHANNELS 3 Zrotation Yrotation Xrotation
		JOINT Spine2
		{
			OFFSET 0.005487 0.135180 0.001092
			CHANNELS 3 Zrotation Yrotation Xrotation
			JOINT Spine3
			{
				OFFSET 0.001457 0.052922 0.025425
				CHANNELS 3 Zrotation Yrotation Xrotation
				JOINT Neck
				{
					OFFSET -0.002778 0.213870 -0.042857
					CHANNELS 3 Zrotation Yrotation Xrotation
					JOINT Head
					{
						OFFSET 0.005152 0.064970 0.051349
						CHANNELS 3 Zrotation Yrotation Xrotation
						End Site
						{
							OFFSET 0.000000 0.000000 0.000000
						}
					}
				}
				JOINT Left_collar
				{
					OFFSET 0.078845 0.121749 -0.034090
					CHANNELS 3 Zrotation Yrotation Xrotation
					JOINT Left_shoulder
					{
						OFFSET 0.090977 0.030469 -0.008868
						CHANNELS 3 Zrotation Yrotation Xrotation
						JOINT Left_elbow
						{
							OFFSET 0.259612 -0.012772 -0.027456
							CHANNELS 3 Zrotation Yrotation Xrotation
							JOINT Left_wrist
							{
								OFFSET 0.249234 0.008986 -0.001171
								CHANNELS 3 Zrotation Yrotation Xrotation
								JOINT Left_palm
								{
									OFFSET 0.084042 -0.008162 -0.014945
									CHANNELS 3 Zrotation Yrotation Xrotation
									End Site
									{
										OFFSET 0.000000 0.000000 0.000000
									}
								}
							}
						}
					}
				}
				JOINT Right_collar
				{
					OFFSET -0.081759 0.118833 -0.038615
					CHANNELS 3 Zrotation Yrotation Xrotation
					JOINT Right_shoulder
					{
						OFFSET -0.096012 0.032551 -0.009143
						CHANNELS 3 Zrotation Yrotation Xrotation
						JOINT Right_elbow
						{
							OFFSET -0.253742 -0.013329 -0.021401
							CHANNELS 3 Zrotation Yrotation Xrotation
							JOINT Right_wrist
							{
								OFFSET -0.255298 0.007772 -0.005559
								CHANNELS 3 Zrotation Yrotation Xrotation
								JOINT Right_palm
								{
									OFFSET -0.084622 -0.006117 -0.010315
									CHANNELS 3 Zrotation Yrotation Xrotation
									End Site
									{
										OFFSET 0.000000 0.000000 0.000000
									}
								}
							}
						}
					}
				}
			}
		}
	}
}
MOTION
Frames: 9
Frame Time: 0.033333
-0.004628 0.401649 0.029706 -9.937817 1.519971 6.597246 43.067188 30.901181 -54.663004 -7.669715 9.659558 95.510214 -8.031054 0.252614 -20.414732 15.554730 19.134474 -15.881726 -37.732546 -20.719996 -26.318140 5.504664 5.913837 62.087519 9.476032 -0.212094 -16.552831 -8.455040 -13.720263 -18.569829 -3.826169 5.637290 36.519443 -0.464680 -5.140722 1.569600 2.279243 -1.703341 1.635556 3.490010 -11.383839 4.092903 14.986694 -16.041661 -9.323939 8.465612 -24.532643 -5.156101 -71.226523 -45.883197 26.133950 9.081181 -63.996431 14.402148 6.970616 9.041070 -26.119383 0.000000 0.000000 0.000000 -16.582457 24.057274 -9.002488 74.484948 33.606511 23.850114 0.449708 60.051743 28.559047 -4.966933 -10.579029 -4.046926 0.000000 0.000000 0.000000 
-0.008543 0.399088 0.030430 -8.731870 1.749249 7.035864 44.696263 31.541507 -54.105066 -7.050349 8.869047 94.497340 -9.418385 -1.434981 -19.298906 17.693368 23.260214 -14.703266 -37.061489 -20.868460 -27.944205 4.790625 5.359308 61.422721 8.203031 -0.085455 -17.255493 -5.024280 -16.554186 -20.231758 -3.897416 4.648644 35.441065 -1.258104 -4.646793 1.162107 2.307569 -3.139644 2.119491 4.570239 -9.713443 2.602206 14.696483 -15.765413 -8.448715 6.278839 -24.492013 -3.195658 -69.518207 -46.710775 21.845374 9.369071 -64.293125 15.185419 5.202970 10.436013 -29.822320 0.000000 0.000000 0.000000 -16.141162 23.500048 -9.040853 76.721619 34.290838 24.748696 -1.016622 59.729070 25.509033 -1.509981 -10.893139 -6.086740 0.000000 0.000000 0.000000 
-0.012090 0.394349 0.031386 -7.681838 1.761757 7.630863 45.391863 30.129082 -52.650382 -7.303656 8.584029 92.747271 -11.192744 -1.160585 -18.661323 21.313702 23.682067 -13.837648 -36.380642 -20.871935 -27.720879 3.832384 4.211348 60.202198 7.001708 -0.291994 -16.015304 -2.954611 -16.930926 -21.218458 -4.403100 3.661624 32.491549 -0.822696 -4.672488 2.637644 2.733006 -3.813318 2.069009 4.773145 -8.761337 3.019569 15.489287 -14.052452 -8.332745 7.589700 -24.672377 -3.351400 -70.268050 -48.603541 24.060114 10.966396 -64.501041 14.411198 4.168430 10.683473 -31.792763 0.000000 0.000000 0.000000 -16.465684 22.400370 -8.186013 78.892877 32.156411 25.303323 0.358917 61.064248 26.255228 -0.431689 -11.582205 -6.478463 0.000000 0.000000 0.000000 
-0.016665 0.411093 0.031810 -7.530287 1.907574 8.491488 45.776449 30.012370 -50.902058 -7.667485 8.854027 90.542322 -11.877834 -0.209006 -17.990357 23.432796 23.008875 -14.022987 -35.638622 -22.212930 -28.314161 3.467159 3.550017 59.805199 6.894360 -1.109284 -14.795220 -3.839574 -16.967127 -21.388680 -5.234377 3.417206 31.387129 -0.337920 -5.035983 2.442786 3.530783 -4.083459 2.940266 4.954840 -12.572329 4.865872 17.235713 -15.652084 -8.338161 7.033344 -24.320805 -2.440125 -74.194459 -48.773819 26.480990 8.669793 -63.893616 15.989207 2.650969 10.649288 -33.538887 0.000000 0.000000 0.000000 -16.558826 22.126013 -7.311589 79.660453 30.891738 24.828342 -2.222281 61.764624 23.877697 0.777858 -11.834883 -5.704858 0.000000 0.000000 0.000000 
-0.020872 0.413615 0.031289 -7.616286 1.720337 9.072239 46.139337 29.232626 -49.187937 -7.303453 8.212792 86.313700 -12.024510 0.259217 -16.754177 23.004996 23.252888 -14.198036 -34.297836 -22.733570 -31.204162 3.368414 1.627980 60.323378 7.663190 -2.180836 -13.173974 -4.830696 -16.743084 -20.847688 -5.006122 2.817619 30.148540 -0.038639 -4.934931 2.371822 3.586522 -4.340640 2.643824 3.220338 -11.574874 5.521876 17.020409 -14.600305 -9.071799 7.185239 -23.829092 -2.445311 -76.081487 -49.996706 27.760151 9.307717 -61.207422 14.285914 2.291599 8.623092 -36.180247 0.000000 0.000000 0.000000 -16.848484 20.775006 -6.542373 78.355793 28.429257 22.934108 -5.342018 61.308250 19.946072 1.612744 -10.848234 -6.680540 0.000000 0.000000 0.000000 
-0.025578 0.415076 0.031199 -7.681604 1.033594 8.970434 45.590908 28.849694 -47.840883 -6.397937 7.274132 82.860714 -12.711727 1.583138 -14.481489 23.108514 23.218013 -14.290154 -33.884443 -22.728188 -32.872947 3.416965 1.061567 60.712920 8.156136 -2.291599 -11.124609 -5.640435 -16.636424 -20.460417 -4.424426 2.366034 28.920769 0.379769 -4.730333 1.914005 3.439401 -4.237172 3.453477 1.932390 -10.120336 5.539430 15.771697 -13.170718 -9.078056 8.866140 -23.397462 -2.963632 -80.238179 -50.877297 30.596849 7.319909 -58.247413 14.314329 1.014981 7.181883 -39.703719 0.000000 0.000000 0.000000 -18.261969 19.581418 -6.799064 78.876548 27.311358 22.567024 -7.998570 59.580895 16.963177 2.833600 -9.989678 -7.969581 0.000000 0.000000 0.000000 
-0.030218 0.423718 0.031822 -7.174600 0.129828 9.071563 44.648235 27.760464 -46.130206 -6.267256 7.038225 79.910829 -12.723354 2.261583 -14.283098 23.364474 23.415992 -14.252679 -33.193761 -22.921218 -34.667368 3.549713 0.285106 61.467027 7.938050 -2.254340 -11.638802 -6.058933 -16.912696 -19.934355 -3.852533 1.000419 28.196740 0.316125 -4.639491 2.003023 3.280607 -4.741373 3.730916 0.867527 -9.581237 5.586168 15.132049 -12.197894 -8.434191 9.519573 -23.267324 -2.821172 -83.813314 -50.976465 32.731415 6.716261 -55.510859 13.614574 -0.886620 6.851351 -43.000156 0.000000 0.000000 0.000000 -18.898181 18.429863 -6.697965 80.081989 27.060228 22.829726 -8.916336 56.248508 15.189985 3.633613 -10.176564 -9.570717 0.000000 0.000000 0.000000 
-0.034104 0.436521 0.032103 -6.793402 -0.907742 8.960504 44.412790 27.286446 -43.268328 -5.811057 7.528901 76.354730 -12.880394 3.365571 -13.268920 23.157220 23.521731 -14.835033 -31.930568 -22.673253 -36.833671 3.429442 -0.411263 61.787146 7.496078 -2.206156 -11.557732 -6.445883 -16.795400 -19.455937 -3.359791 -0.208263 27.440777 -0.165309 -4.665496 1.711268 3.095630 -5.151120 3.858877 0.262619 -10.527057 4.607263 15.369456 -11.972775 -8.458302 9.300315 -23.295389 -2.501680 -87.359130 -51.105357 34.608333 6.823365 -53.128173 12.507062 -1.731160 5.823360 -46.130028 0.000000 0.000000 0.000000 -19.230326 17.589294 -6.772496 80.648312 26.451095 22.438138 -10.578162 52.981768 12.466022 5.397129 -9.808812 -11.030386 0.000000 0.000000 0.000000 
-0.037376 0.444421 0.032419 -6.659609 -1.937180 9.052740 44.524834 26.165389 -40.783311 -5.491802 6.981743 74.122816 -13.154122 5.130462 -12.276259 23.092993 23.359886 -15.384027 -30.888924 -21.931230 -38.951039 3.707925 -0.468788 62.012166 6.947482 -2.602748 -10.779608 -6.532381 -17.058417 -19.446176 -3.172832 -1.234706 26.180542 -0.615253 -4.645924 1.427063 2.926887 -5.278150 4.435912 -0.092803 -11.031543 4.643876 15.638603 -11.285716 -8.175634 10.095919 -23.729046 -2.631376 -90.092571 -51.331449 36.608940 6.513027 -50.699583 12.026528 -3.336135 5.121637 -47.577782 0.000000 0.000000 0.000000 -20.084927 17.456965 -7.087057 81.119359 26.602607 21.837670 -12.821775 50.874118 9.719647 6.327373 -9.920957 -11.839266 0.000000 0.000000 0.000000 
